<svg width="133" height="112" viewBox="0 0 133 112" fill="none" xmlns="http://www.w3.org/2000/svg">
<path fill-rule="evenodd" clip-rule="evenodd" d="M67 7.57386C77.5287 -2.79521 89.1669 -1.35676 95.959 4.94601C103.871 12.2806 104.01 24.5507 96.3822 32.0632L67 61L37.6178 32.0581C29.9897 24.5456 30.1291 12.2755 38.041 4.94093C44.8331 -1.35676 56.4868 -2.78505 67 7.57386ZM67 53.8128L92.7333 28.4645C98.3331 22.9496 98.1989 13.9986 92.4236 8.64126C89.9514 6.34889 86.6483 5.08833 83.1181 5.08833C76.5647 5.08833 73.1546 8.54353 68.868 12.8867C68.2663 13.4964 67.6473 14.1235 67 14.7611C66.3637 14.1344 65.7562 13.5211 65.1675 12.9269C60.7571 8.47488 57.4022 5.08833 50.8819 5.08833C47.3517 5.08833 44.0486 6.34889 41.5816 8.64635C35.7908 14.0139 35.6824 22.9648 41.2667 28.4696L67 53.8128Z" fill="#726133"/>
<path fill-rule="evenodd" clip-rule="evenodd" d="M115.645 12.8263C116.093 8.36286 119.815 5 124.3 5C129.095 5 133 8.90805 133 13.7078V64.4971C133 67.8752 131.692 71.0598 129.314 73.4647L109.994 92.9795C108.416 94.4775 107.545 96.4952 107.545 98.569V112H77V83.4616C77.0356 78.6517 79.0873 74.0507 82.6255 70.8254L108.34 46.8676C109.444 45.7619 110.87 45.0078 112.423 44.6766L115.645 12.8263ZM125.695 69.8828C127.125 68.4357 127.909 66.525 127.909 64.4971V13.7078C127.909 11.7155 126.29 10.0952 124.3 10.0952C122.441 10.0952 120.894 11.4913 120.705 13.346L117.493 45.1403C118.481 45.553 119.382 46.1542 120.156 46.9389C121.744 48.5235 122.615 50.633 122.615 52.88C122.615 55.127 121.739 57.2364 120.151 58.8261L100.199 76.9397L96.7782 73.1692L116.638 55.1422C117.172 54.6021 117.524 53.7665 117.524 52.885C117.524 52.0036 117.177 51.168 116.551 50.5412C115.869 49.8585 115.07 49.6598 114.515 49.6088C113.512 49.5069 112.565 49.8483 111.873 50.5412L86.0771 74.5857C83.5571 76.8785 82.1164 80.114 82.0909 83.4921V106.905H102.455V98.569C102.455 95.094 103.905 91.7311 106.436 89.3364L125.695 69.8828Z" fill="#726133"/>
<path fill-rule="evenodd" clip-rule="evenodd" d="M24.6604 46.8676L50.3745 70.8254C53.9127 74.0558 55.9695 78.6517 56 83.4616V112H25.4545V98.569C25.4545 96.4952 24.584 94.4724 23.0058 92.9744L3.68582 73.4596C1.30836 71.0598 0 67.8752 0 64.4971V13.7078C0 8.90805 3.90473 5 8.70036 5C13.1855 5 16.9069 8.36286 17.3549 12.8263L20.5775 44.6766C22.1302 45.0027 23.5556 45.7619 24.6604 46.8676ZM30.5455 106.905H50.9091V83.4819C50.8836 80.1038 49.4429 76.8683 46.9229 74.5755L21.1273 50.531C20.4349 49.8381 19.4931 49.5018 18.4851 49.5986C17.9302 49.6496 17.1258 49.8483 16.4487 50.531C15.8225 51.1578 15.4764 51.9883 15.4764 52.8749C15.4764 53.7614 15.8225 54.5919 16.3622 55.132L36.2218 73.159L32.8007 76.9295L12.8495 58.8159C11.2611 57.2262 10.3855 55.1168 10.3855 52.8698C10.3855 50.6228 11.2611 48.5133 12.8444 46.9287C13.6182 46.1491 14.5193 45.5479 15.5069 45.1301L12.2945 13.3358C12.1062 11.4913 10.5585 10.0952 8.70036 10.0952C6.70982 10.0952 5.09091 11.7155 5.09091 13.7078V64.4971C5.09091 66.525 5.87491 68.4357 7.30545 69.8828L26.5644 89.3364C29.0945 91.7311 30.5455 95.0991 30.5455 98.569V106.905Z" fill="#726133"/>
</svg>
