<svg width="124" height="122" viewBox="0 0 124 122" fill="none" xmlns="http://www.w3.org/2000/svg">
<path fill-rule="evenodd" clip-rule="evenodd" d="M123.403 25.4287L123.394 25.4199L98.592 0.606512C98.1975 0.20562 97.6545 -0.0135652 97.0925 0.000650871C96.5314 0.0107313 95.9986 0.249044 95.6171 0.66105L87.9389 8.93219C87.1899 9.73915 87.2041 10.9917 87.9712 11.7813L88.5533 12.3802L85.5046 15.4302L80.6886 14.2268C76.3691 13.1691 71.8119 14.464 68.693 17.6355L59.9078 27.8785L49.6995 17.6657C46.7894 14.7378 42.4699 13.717 38.5578 15.0324C38.3243 15.111 38.1065 15.2299 37.914 15.3837L37.3529 15.836L35.9923 14.4752L38.6648 11.8015C39.4719 10.9945 39.4722 9.68564 38.6656 8.87843L38.6648 8.87765L30.3973 0.606512C29.5907 -0.200958 28.2824 -0.201217 27.4756 0.605737L27.4748 0.606512L0.605527 27.4877C-0.201584 28.2947 -0.201842 29.6036 0.604752 30.4108L0.605527 30.4116L8.87299 38.6827C9.67959 39.4902 10.9879 39.4904 11.795 38.6835L11.7958 38.6827L12.7292 37.7489L17.6269 42.6487L16.424 47.4669C15.3689 51.7248 16.609 56.225 19.6959 59.3407L37.2038 77.3604V93.5256C37.2418 97.2318 39.3205 100.615 42.6092 102.322C44.3725 103.26 45.4736 105.097 45.4713 107.095V107.525H43.4044C42.2635 107.525 41.3383 108.45 41.3375 109.591V109.593V119.932C41.3367 121.074 42.2612 121.999 43.4021 122H43.4044H82.6749C83.8158 122.001 84.7409 121.076 84.7417 119.935V119.932V109.593C84.7425 108.452 83.8181 107.526 82.6772 107.525H82.6749H80.608V105.448L83.884 102.425C87.0189 100.052 88.8654 96.3499 88.8754 92.417V68.1939C91.3229 67.8997 93.598 66.7831 95.3285 65.0268L106.254 53.1572C108.823 50.6063 109.717 46.8161 108.559 43.3856C108.228 42.3884 110.008 39.125 112.13 36.6222C112.508 36.998 113.017 37.2125 113.551 37.2205H113.571C114.115 37.2205 114.637 37.0057 115.024 36.6227L123.386 28.3515C124.198 27.5492 124.205 26.2406 123.403 25.4287ZM10.3345 34.2969L4.98987 28.9496L28.9363 4.99229L34.2812 10.3393L10.3345 34.2969ZM22.6388 56.4367L37.387 71.6158C38.168 67.4896 41.3605 64.2426 45.4713 63.3935V41.7686C45.4237 37.9838 48.215 34.7625 51.9666 34.2729C53.4163 34.1271 54.876 34.4205 56.157 35.115C56.5419 33.9229 57.2291 32.8508 58.1512 32.0033L58.1709 31.9885L46.7773 20.5899C45.0594 18.8627 42.5425 18.1992 40.1971 18.8552L38.4997 20.2223C37.6771 20.8835 36.4889 20.8191 35.7425 20.0729L33.0701 17.3993L15.6521 34.825L21.3773 40.5528C21.8909 41.0658 22.0973 41.8113 21.9203 42.5156L20.4327 48.4685C19.7279 51.3277 20.564 54.3477 22.6388 56.4367ZM80.608 117.864H45.4713V111.661H80.608V117.864ZM81.2417 99.2505C83.4205 97.6523 84.7177 95.1196 84.7417 92.417V61.1172C84.7337 58.497 83.0784 56.1653 80.608 55.2948V72.3729H76.4742V43.9065C76.5368 42.2098 75.3305 40.7306 73.6566 40.4515C73.5615 40.4429 73.4662 40.4385 73.3706 40.4385C71.659 40.4398 70.2724 41.8289 70.2737 43.5412V72.3729H66.1399V37.7031C66.2024 36.0065 64.9962 34.5272 63.3223 34.2481C63.2272 34.2396 63.1319 34.2352 63.0363 34.2352C61.3246 34.2365 59.938 35.6255 59.9393 37.3379V72.3731H55.8056V41.4734C55.8095 40.5959 55.4377 39.7587 54.7843 39.1736C54.1294 38.5829 53.2551 38.2976 52.3782 38.3881C50.7322 38.6507 49.5417 40.102 49.605 41.7684V80.6445H45.4713V67.702C43.0008 68.5726 41.3455 70.9042 41.3375 73.5244V93.5258C41.3773 95.7037 42.6133 97.6826 44.5528 98.673C47.6657 100.328 49.6096 103.569 49.605 107.096V107.526H76.4742V104.541C76.474 103.962 76.7163 103.41 77.1424 103.019L81.2417 99.2505ZM104.639 44.6943C105.296 46.6685 104.765 48.8443 103.273 50.2938L92.347 62.1635C91.4017 63.1193 90.1931 63.7709 88.8752 64.0353V61.1174C88.8687 56.2064 85.4158 51.9752 80.6077 50.9866V43.9067C80.6803 40.063 77.8309 36.7891 74.0155 36.3322C72.7195 36.2231 71.4177 36.4601 70.2429 37.0187C69.9995 33.4409 67.2413 30.5449 63.6811 30.1288C63.6339 30.1248 63.5871 30.1277 63.5402 30.1306C63.4999 30.1331 63.4595 30.1356 63.4189 30.1337L71.7225 20.4443C73.8108 18.3693 76.8292 17.5329 79.6872 18.2372L85.6374 19.7255C86.3415 19.9021 87.0863 19.6958 87.5994 19.1822L91.4347 15.3452L109.243 33.667C107.336 35.8811 103.417 41.0266 104.639 44.6943ZM92.3046 10.307L113.599 32.2168L119.002 26.8733L97.1853 5.04656L92.3046 10.307Z" fill="#726133"/>
</svg>
