<svg width="111" height="139" viewBox="0 0 111 139" fill="none" xmlns="http://www.w3.org/2000/svg">
<path fill-rule="evenodd" clip-rule="evenodd" d="M75.0013 48.0244H81.1316C82.7132 48.0244 84.0003 49.3113 84 50.8929V58.1074C84 59.689 82.7129 60.9758 81.1313 60.9758H75.0007C74.6267 62.1637 74.1503 63.3142 73.5757 64.4178L77.9104 68.7526C78.4521 69.2945 78.7503 70.0149 78.7503 70.7811C78.7503 71.5473 78.4521 72.2677 77.9104 72.8094L72.8095 77.9106C71.691 79.0291 69.8712 79.0294 68.7525 77.9106L64.4177 73.5759C63.3141 74.1505 62.1633 74.6268 60.9758 75.0009V81.1316C60.9758 82.7131 59.6887 84 58.1071 84H50.8926C49.3111 84 48.0242 82.7131 48.0242 81.1316V75.0009C46.8364 74.6268 45.6856 74.1505 44.582 73.5759L40.2473 77.9106C39.1291 79.0291 37.309 79.0294 36.1905 77.9106L31.0893 72.8094C29.9709 71.6909 29.9709 69.871 31.0893 68.7526L35.424 64.4178C34.8494 63.3145 34.3733 62.1637 33.999 60.9758H27.8684C26.2868 60.9758 25 59.689 25 58.1074V50.8929C25 49.311 26.2868 48.0242 27.8684 48.0242H33.999C34.3731 46.8363 34.8494 45.6858 35.424 44.5822L31.0893 40.2474C30.5476 39.7057 30.2491 38.9854 30.2491 38.2192C30.2491 37.4527 30.5476 36.7323 31.0896 36.1906L36.1905 31.0896C37.309 29.9717 39.1286 29.9715 40.247 31.0894L44.582 35.4244C45.6859 34.8498 46.8361 34.3737 48.0242 33.9994V27.8687C48.0242 26.2869 49.3111 25 50.8926 25H58.1071C59.6889 25 60.9758 26.2871 60.9761 27.8687V33.9994C62.1639 34.3734 63.3144 34.8498 64.418 35.4244L68.7527 31.0896C69.8714 29.9712 71.691 29.9717 72.8095 31.0894L77.9107 36.1909C78.4524 36.7326 78.7506 37.4529 78.7506 38.2194C78.7506 38.9857 78.4524 39.706 77.9107 40.2477L73.5762 44.5825C74.1508 45.6861 74.6269 46.8363 75.0013 48.0244ZM73.4588 56.9274H79.9522V52.0734H73.4588C72.5183 52.0734 71.7021 51.4259 71.4878 50.5102C71.056 48.6652 70.3316 46.9154 69.3346 45.3101C68.8383 44.5109 68.9576 43.4756 69.6226 42.8106L74.2137 38.2194L70.7812 34.7869L66.1901 39.3781C65.5248 40.0426 64.489 40.1621 63.6906 39.6663C62.0845 38.6691 60.3351 37.9447 58.4906 37.5131C57.5749 37.2988 56.9274 36.4824 56.9274 35.5421V29.0484H52.0734V35.5421C52.0734 36.4827 51.4259 37.2991 50.5102 37.5131C48.6655 37.9447 46.9158 38.6691 45.3102 39.6663C44.511 40.1627 43.4752 40.0431 42.8107 39.3781L38.2196 34.7869L34.7871 38.2194L39.3782 42.8106C40.0432 43.4759 40.1625 44.5112 39.6665 45.3101C38.6692 46.916 37.9448 48.6657 37.5133 50.5102C37.299 51.4259 36.4826 52.0734 35.5422 52.0734H29.0489V56.9274H35.5422C36.4826 56.9274 37.2992 57.5749 37.5133 58.4907C37.9448 60.3351 38.6692 62.0848 39.6665 63.6907C40.1625 64.4899 40.0432 65.5252 39.3782 66.1902L34.7871 70.7814L38.2196 74.2139L42.8107 69.6227C43.476 68.9577 44.5116 68.839 45.3102 69.3345C46.9163 70.3323 48.666 71.0567 50.5102 71.488C51.4259 71.7023 52.0734 72.5187 52.0734 73.459V79.9527H56.9274V73.459C56.9274 72.5184 57.5749 71.702 58.4906 71.488C60.3348 71.0561 62.0845 70.3317 63.6904 69.3345C64.4898 68.8379 65.5251 68.9577 66.1901 69.6227L70.7812 74.2139L74.2137 70.7814L69.6226 66.1902C68.9578 65.5249 68.8383 64.4896 69.3346 63.6907C70.3319 62.0851 71.0563 60.3354 71.4878 58.4907C71.7021 57.5749 72.5185 56.9274 73.4588 56.9274Z" fill="#726133"/>
<path fill-rule="evenodd" clip-rule="evenodd" d="M45 55.5C45 49.159 49.9344 44 56 44C62.0656 44 67 49.159 67 55.5C67 61.841 62.0653 67 56 67C49.9347 67 45 61.841 45 55.5ZM49.1065 55.5C49.1065 59.4738 52.199 62.7068 56 62.7068C59.801 62.7068 62.8935 59.4738 62.8935 55.5C62.8935 51.5262 59.801 48.2932 56 48.2932C52.199 48.2932 49.1065 51.5262 49.1065 55.5Z" fill="#726133"/>
<path d="M8.9314 54H2.0686C0.926182 54 0 54.8955 0 56C0 57.1045 0.926182 58 2.0686 58H8.9314C10.0738 58 11 57.1045 11 56C11 54.8955 10.0738 54 8.9314 54Z" fill="#726133"/>
<path d="M108.931 54H102.069C100.926 54 100 54.8955 100 56C100 57.1045 100.926 58 102.069 58H108.931C110.074 58 111 57.1045 111 56C111 54.8955 110.074 54 108.931 54Z" fill="#726133"/>
<path d="M23.3934 87.6066C22.585 86.7978 21.2737 86.7978 20.4646 87.6066L15.6066 92.4646C14.7978 93.2734 14.7978 94.5847 15.6066 95.3934C16.4153 96.2022 17.7266 96.2022 18.5354 95.3934L23.3934 90.5354C24.2022 89.7266 24.2022 88.4153 23.3934 87.6066Z" fill="#726133"/>
<path d="M94.3935 15.6066C93.5844 14.7978 92.2735 14.7978 91.4645 15.6066L86.6065 20.4647C85.7978 21.2735 85.7978 22.5848 86.6065 23.3935C87.4156 24.2023 88.7265 24.202 89.5355 23.3935L94.3935 18.5354C95.2022 17.7264 95.2022 16.4151 94.3935 15.6066Z" fill="#726133"/>
<path d="M56 0C54.8952 0 54 0.926182 54 2.0686V8.9314C54 10.0738 54.8952 11 56 11C57.1048 11 58 10.0738 58 8.9314V2.0686C58 0.926182 57.1048 0 56 0Z" fill="#726133"/>
<path d="M94.3935 92.4646L89.5355 87.6066C88.7265 86.7978 87.4156 86.7978 86.6065 87.6066C85.7978 88.4153 85.7978 89.7269 86.6065 90.5354L91.4645 95.3934C92.2735 96.2022 93.5844 96.2022 94.3935 95.3934C95.2022 94.5847 95.2022 93.2734 94.3935 92.4646Z" fill="#726133"/>
<path d="M23.3934 20.4646L18.5354 15.6066C17.7266 14.7978 16.4153 14.7978 15.6066 15.6066C14.7978 16.4153 14.7978 17.7266 15.6066 18.5354L20.4646 23.3934C21.2734 24.2022 22.5847 24.2022 23.3934 23.3934C24.2022 22.5844 24.2022 21.2731 23.3934 20.4646Z" fill="#726133"/>
<path d="M95.9859 51.6719C93.7902 32.5212 78.9373 17.3391 60.2879 15.0157C59.1711 14.8753 58.1518 15.6903 58.0152 16.8333C57.8789 17.9767 58.6752 19.0166 59.7938 19.1562C76.7307 21.266 89.9468 34.8368 91.9324 52.1574C92.054 53.2187 92.9357 54 93.9562 54C94.0356 54 94.1156 53.9953 94.1964 53.9858C95.3162 53.8521 96.1171 52.8161 95.9859 51.6719Z" fill="#726133"/>
<path fill-rule="evenodd" clip-rule="evenodd" d="M91.9695 60.2176C92.1098 59.1035 93.1209 58.3139 94.2315 58.4559C95.3402 58.5969 96.1251 59.6142 95.9835 60.7283C94.4511 72.8902 87.6206 83.6191 77.2446 90.1639C74.4025 91.9565 72.7061 95.0179 72.7061 98.3535V107.017C74.7641 107.735 76.2476 109.698 76.2476 112.007V114.905C76.2476 116.133 75.8256 117.26 75.1246 118.158C75.8256 119.057 76.2476 120.184 76.2476 121.412V124.31C76.2476 127.224 73.8871 129.596 70.9856 129.596H64.623V134.192C64.623 136.843 62.4763 139 59.8371 139H51.4732C48.8342 139 46.6872 136.843 46.6872 134.192V129.596H40.3246C37.4234 129.596 35.0627 127.224 35.0627 124.31V121.412C35.0627 120.184 35.4844 119.057 36.1854 118.158C35.4847 117.26 35.0627 116.132 35.0627 114.905V112.007C35.0627 109.698 36.5464 107.735 38.6042 107.017V98.1683C38.6042 94.9724 36.9498 91.9581 34.2864 90.3018C28.5034 86.7056 23.6683 81.6685 20.3043 75.7348C16.834 69.614 15 62.6345 15 55.5506C14.9997 35.0218 30.4434 17.5351 50.6847 15.016C51.7945 14.8761 52.8048 15.6695 52.9421 16.7836C53.0795 17.898 52.2918 18.9134 51.1826 19.0514C32.863 21.3311 19.0483 37.0223 19.0483 55.5506C19.0485 68.3828 25.5417 80.0814 36.4175 86.8446C40.2634 89.2363 42.6527 93.5756 42.6527 98.1686V106.721H68.6597V98.3537C68.6597 93.6105 71.0647 89.2615 75.0935 86.7202C84.4388 80.8258 90.5899 71.1656 91.9695 60.2176ZM59.8379 134.933C60.238 134.933 60.5761 134.593 60.5761 134.191V129.595H50.7357V134.191C50.7357 134.594 51.0738 134.933 51.474 134.933H59.8379ZM72.201 124.309C72.201 124.97 71.6448 125.529 70.9867 125.529H40.3254C39.6673 125.529 39.1112 124.97 39.1112 124.309V121.411C39.1112 120.75 39.6673 120.191 40.3254 120.191H70.9867C71.6448 120.191 72.201 120.75 72.201 121.411V124.309ZM70.9867 116.125C71.6448 116.125 72.201 115.566 72.201 114.905V112.007C72.201 111.346 71.6448 110.787 70.9867 110.787H40.3254C39.6673 110.787 39.1112 111.346 39.1112 112.007V114.905C39.1112 115.566 39.6673 116.125 40.3254 116.125H70.9867Z" fill="#726133"/>
</svg>
