<svg width="99" height="116" viewBox="0 0 99 116" fill="none" xmlns="http://www.w3.org/2000/svg">
<path fill-rule="evenodd" clip-rule="evenodd" d="M98.8811 31.3835L98.8846 31.4738C99.1436 45.0993 99.4656 62.057 93.7694 77.4659C90.6464 85.9159 85.9206 93.2615 79.7242 99.2999C72.67 106.174 63.4322 111.634 52.2678 115.53C51.9023 115.658 51.5218 115.761 51.1369 115.838C50.5949 115.946 50.0477 116 49.5013 116C48.9549 116 48.4085 115.946 47.8657 115.838C47.4807 115.761 47.1029 115.658 46.7392 115.532C35.5615 111.643 26.3139 106.185 19.2536 99.3105C13.0545 93.2739 8.32868 85.9301 5.20829 77.4818C-0.466591 62.1189 -0.143732 45.1932 0.116153 31.5932L0.121474 31.3835C0.172032 30.2613 0.206624 29.0825 0.226138 27.7797C0.321044 21.3829 5.41762 16.0923 11.8278 15.7357C25.1946 14.9905 35.5349 10.6416 44.3701 2.04902L44.4455 1.97733C47.3282 -0.65911 51.6753 -0.65911 54.5571 1.97733L54.6324 2.04902C63.4676 10.6416 73.808 14.9905 87.1748 15.7348C93.5858 16.0923 98.6815 21.3829 98.7764 27.7789C98.7968 29.0904 98.8305 30.2693 98.8811 31.3835ZM50.0166 109.105C69.1656 102.423 81.3837 91.303 87.369 75.1109C92.6146 60.9197 92.3254 45.3702 92.0647 31.6472C92.0114 30.4772 91.976 29.2435 91.9556 27.8806C91.9139 25.0398 89.6468 22.6901 86.7951 22.5316C79.2301 22.1104 72.5849 20.6519 66.4789 18.073C60.3818 15.4976 54.966 11.8673 49.9235 6.97497C49.668 6.75814 49.3354 6.75903 49.0791 6.97497C44.0375 11.8673 38.6216 15.4976 32.5236 18.073C26.4177 20.6519 19.7725 22.1104 12.2083 22.5316C9.35668 22.6901 7.08957 25.0398 7.04699 27.8797C7.02748 29.2356 6.992 30.4693 6.93878 31.6472L6.93701 31.7233C6.67535 45.4303 6.3791 60.9675 11.6096 75.1286C17.5905 91.3215 29.8166 102.435 48.9859 109.105C49.0534 109.128 49.1261 109.147 49.2006 109.162C49.4011 109.202 49.6024 109.202 49.8002 109.163C49.8756 109.148 49.9483 109.128 50.0166 109.105Z" fill="#726133"/>
<path fill-rule="evenodd" clip-rule="evenodd" d="M21 57.9996C21 42.0096 34.0089 29 50 29C65.9902 29 79 42.0096 79 57.9996C79 73.9904 65.9902 87 50 87C34.0089 87 21 73.9904 21 57.9996ZM27.8281 57.9996C27.8281 70.2253 37.7741 80.1711 50 80.1711C62.225 80.1711 72.171 70.2253 72.171 57.9996C72.171 45.7738 62.225 35.828 50 35.828C37.7741 35.828 27.8281 45.7738 27.8281 57.9996Z" fill="#726133"/>
<path d="M59.1277 48.9694L45.556 62.0163L41.8723 58.4751C40.5287 57.1835 38.3506 57.1835 37.007 58.4751C35.6643 59.7667 35.6643 61.8607 37.007 63.1515L43.1238 69.0317C43.7955 69.6775 44.6758 70 45.556 70C46.4362 70 47.3164 69.6775 47.9882 69.0317L63.993 53.6457C65.3357 52.3541 65.3357 50.2601 63.993 48.9694C62.6494 47.6769 60.4713 47.6769 59.1277 48.9694Z" fill="#726133"/>
</svg>
